<svg id="SvgjsSvg1015" xmlns="http://www.w3.org/2000/svg" version="1.1" xmlns:xlink="http://www.w3.org/1999/xlink" xmlns:svgjs="http://svgjs.com/svgjs" width="26" height="26" viewBox="0 0 26 26"><title>Ellipse 2</title><desc>Created with Avocode.</desc><defs id="SvgjsDefs1016"><clipPath id="SvgjsClipPath1019"><path id="SvgjsPath1018" d="M730.281 234.531C737.3059999999999 234.531 743 240.219 743 247.234C743 254.25 737.306 259.937 730.281 259.937C723.257 259.937 717.563 254.25 717.563 247.234C717.563 240.21900000000002 723.257 234.531 730.281 234.531Z " fill="#ffffff"></path></clipPath></defs><path id="SvgjsPath1017" d="M730.281 234.531C737.3059999999999 234.531 743 240.219 743 247.234C743 254.25 737.306 259.937 730.281 259.937C723.257 259.937 717.563 254.25 717.563 247.234C717.563 240.21900000000002 723.257 234.531 730.281 234.531Z " fill-opacity="0" fill="#ffffff" stroke-dasharray="0" stroke-linejoin="miter" stroke-linecap="butt" stroke-opacity="1" stroke="#e2e2e2" stroke-miterlimit="50" stroke-width="1" clip-path="url(&quot;#SvgjsClipPath1019&quot;)" transform="matrix(1,0,0,1,-717,-234)"></path></svg>