<svg id="SvgjsSvg1020" xmlns="http://www.w3.org/2000/svg" version="1.1" xmlns:xlink="http://www.w3.org/1999/xlink" xmlns:svgjs="http://svgjs.com/svgjs" width="12" height="12" viewBox="0 0 12 12"><title>Rounded Rectangle 1 copy</title><desc>Created with Avocode.</desc><defs id="SvgjsDefs1021"></defs><path id="SvgjsPath1022" d="M668.604 87.262C669.5160000000001 86.7356 670.683 87.0479 671.21 87.9601L672.48172 90.1622L674.684 88.891C675.596 88.3643 676.7629999999999 88.6768 677.29 89.589C677.8159999999999 90.501 677.504 91.6675 676.591 92.1943L674.38929 93.46531L675.661 95.6674C676.1869999999999 96.5798 675.875 97.7459 674.962 98.2727C674.05 98.7992 672.883 98.4868 672.357 97.5744L671.08541 95.37259L668.883 96.644C667.97 97.1704 666.8040000000001 96.8579 666.277 95.9457C665.75 95.0336 666.063 93.8672 666.975 93.3408L669.17772 92.06934L667.9060000000001 89.8673C667.379 88.9552 667.692 87.7888 668.604 87.262Z " fill="#e2e2e2" fill-opacity="1" transform="matrix(1,0,0,1,-666,-87)"></path></svg>