<svg id="SvgjsSvg1000" xmlns="http://www.w3.org/2000/svg" version="1.1" xmlns:xlink="http://www.w3.org/1999/xlink" xmlns:svgjs="http://svgjs.com/svgjs" width="31" height="24" viewBox="0 0 31 24"><title>‘ copy</title><desc>Created with Avocode.</desc><defs id="SvgjsDefs1001"></defs><path id="SvgjsPath1007" d="M47.2084 367.998C44.6064 371.27799999999996 40.224 379.341 40.224 383.851C40.224 386.858 41.798899999999996 390.002 46.318299999999994 390.002C49.53659999999999 390.002 51.864599999999996 387.54200000000003 51.864599999999996 384.398C51.864599999999996 381.733 50.769099999999995 379.88800000000003 48.1671 379.06800000000004C48.7149 377.15500000000003 50.4952 372.85 52.001599999999996 370.321Z " fill="#f36d21" fill-opacity="1" transform="matrix(1,0,0,1,-22,-367)"></path><path id="SvgjsPath1008" d="M29.2084 367.998C26.6064 371.27799999999996 22.224 379.341 22.224 383.851C22.224 386.858 23.7989 390.002 28.3183 390.002C31.5366 390.002 33.8647 387.54200000000003 33.8647 384.398C33.8647 381.733 32.7691 379.88800000000003 30.167099999999998 379.06800000000004C30.714899999999997 377.15500000000003 32.4952 372.85 34.001599999999996 370.321Z " fill="#f36d21" fill-opacity="1" transform="matrix(1,0,0,1,-22,-367)"></path></svg>