<?xml version="1.0" encoding="utf-8"?>
<!-- Generator: Adobe Illustrator 16.0.0, SVG Export Plug-In . SVG Version: 6.00 Build 0)  -->
<!DOCTYPE svg PUBLIC "-//W3C//DTD SVG 1.1//EN" "http://www.w3.org/Graphics/SVG/1.1/DTD/svg11.dtd">
<svg version="1.1" id="Layer_1" xmlns="http://www.w3.org/2000/svg" xmlns:xlink="http://www.w3.org/1999/xlink" x="0px" y="0px"
	 width="100%" height="100%" viewBox="0 0 112.6 112.6" enable-background="new 0 0 112.6 112.6" xml:space="preserve">
<g>
	<defs>
		<rect id="SVGID_1_" width="112.6" height="112.6"/>
	</defs>
	<clipPath id="SVGID_2_">
		<use xlink:href="#SVGID_1_"  overflow="visible"/>
	</clipPath>
	<g clip-path="url(#SVGID_2_)">
		<defs>
			<rect id="SVGID_3_" width="112.6" height="112.6"/>
		</defs>
		<clipPath id="SVGID_4_">
			<use xlink:href="#SVGID_3_"  overflow="visible"/>
		</clipPath>
		<g opacity="0.49" clip-path="url(#SVGID_4_)">
			<g>
				<defs>
					<rect id="SVGID_5_" width="112.6" height="112.6"/>
				</defs>
				<clipPath id="SVGID_6_">
					<use xlink:href="#SVGID_5_"  overflow="visible"/>
				</clipPath>
				
					<polygon clip-path="url(#SVGID_6_)" fill="none" stroke="#F36D21" stroke-width="0.5" stroke-linecap="round" stroke-linejoin="round" stroke-miterlimit="10" points="
					56.3,4.73 69.17,1.86 75.48,10.73 				"/>
				
					<circle clip-path="url(#SVGID_6_)" fill="none" stroke="#F36D21" stroke-width="0.75" stroke-linecap="round" stroke-linejoin="round" stroke-miterlimit="10" cx="56.3" cy="56.3" r="55.93"/>
				
					<circle clip-path="url(#SVGID_6_)" fill="none" stroke="#F36D21" stroke-width="0.75" stroke-linecap="round" stroke-linejoin="round" stroke-miterlimit="10" cx="56.3" cy="56.3" r="45.57"/>
				
					<polygon clip-path="url(#SVGID_6_)" fill="none" stroke="#F36D21" stroke-width="0.5" stroke-linecap="round" stroke-linejoin="round" stroke-miterlimit="10" points="
					75.48,10.73 90.49,12.04 84.78,20.73 				"/>
				
					<polygon clip-path="url(#SVGID_6_)" fill="none" stroke="#F36D21" stroke-width="0.5" stroke-linecap="round" stroke-linejoin="round" stroke-miterlimit="10" points="
					90.49,12.04 96.98,26.35 106.42,31.45 				"/>
				
					<polyline clip-path="url(#SVGID_6_)" fill="none" stroke="#F36D21" stroke-width="0.5" stroke-linecap="round" stroke-linejoin="round" stroke-miterlimit="10" points="
					104.35,44.98 112.22,57.48 106.42,31.45 104.35,44.98 96.98,26.35 84.78,20.73 				"/>
				
					<polyline clip-path="url(#SVGID_6_)" fill="none" stroke="#F36D21" stroke-width="0.5" stroke-linecap="round" stroke-linejoin="round" stroke-miterlimit="10" points="
					100.76,67.24 108.41,76.65 112.22,57.48 100.66,67.85 104.35,44.98 99.26,41.06 96.98,26.35 				"/>
				
					<line clip-path="url(#SVGID_6_)" fill="none" stroke="#F36D21" stroke-width="0.5" stroke-linecap="round" stroke-linejoin="round" stroke-miterlimit="10" x1="104.35" y1="44.98" x2="107.6" y2="76.65"/>
				
					<path clip-path="url(#SVGID_6_)" fill="none" stroke="#F36D21" stroke-width="0.5" stroke-linecap="round" stroke-linejoin="round" stroke-miterlimit="10" d="
					M96.98,78.01c0.25-0.03,3.71,12.32,3.71,12.32l-17.71,2.92l25.43-16.59l-12.07,1.43"/>
				
					<path clip-path="url(#SVGID_6_)" fill="none" stroke="#F36D21" stroke-width="0.5" stroke-linecap="round" stroke-linejoin="round" stroke-miterlimit="10" d="
					M86.5,103.38c-1.78-0.53-14.75-4.2-14.75-4.2l12.1-6.08L86.5,103.38l14.19-13.06"/>
				
					<polyline clip-path="url(#SVGID_6_)" fill="none" stroke="#F36D21" stroke-width="0.5" stroke-linecap="round" stroke-linejoin="round" stroke-miterlimit="10" points="
					71.75,99.18 59.99,112.11 85.52,103.1 				"/>
				
					<polyline clip-path="url(#SVGID_6_)" fill="none" stroke="#F36D21" stroke-width="0.5" stroke-linecap="round" stroke-linejoin="round" stroke-miterlimit="10" points="
					55.55,101.87 39.81,109.76 70.89,100.14 55.55,101.87 59.99,112.11 				"/>
				
					<line clip-path="url(#SVGID_6_)" fill="none" stroke="#F36D21" stroke-width="0.5" stroke-linecap="round" stroke-linejoin="round" stroke-miterlimit="10" x1="72.3" y1="99.34" x2="72.75" y2="107.6"/>
				
					<polyline clip-path="url(#SVGID_6_)" fill="none" stroke="#F36D21" stroke-width="0.5" stroke-linecap="round" stroke-linejoin="round" stroke-miterlimit="10" points="
					54.72,101.84 27.86,104.46 30.85,94.11 40.6,109.36 				"/>
				
					<path clip-path="url(#SVGID_6_)" fill="none" stroke="#F36D21" stroke-width="0.5" stroke-linecap="round" stroke-linejoin="round" stroke-miterlimit="10" d="
					M27.86,104.46c0,0-9.76-12.73-9.38-12.73s12.95,2.76,12.95,2.76"/>
				
					<polygon clip-path="url(#SVGID_6_)" fill="none" stroke="#F36D21" stroke-width="0.5" stroke-linecap="round" stroke-linejoin="round" stroke-miterlimit="10" points="
					18.48,91.73 24.95,89.37 17.07,79.5 				"/>
				
					<polyline clip-path="url(#SVGID_6_)" fill="none" stroke="#F36D21" stroke-width="0.5" stroke-linecap="round" stroke-linejoin="round" stroke-miterlimit="10" points="
					17.07,80.35 6.13,81.03 18.48,91.73 17.07,96.16 				"/>
				
					<polyline clip-path="url(#SVGID_6_)" fill="none" stroke="#F36D21" stroke-width="0.5" stroke-linecap="round" stroke-linejoin="round" stroke-miterlimit="10" points="
					6.13,80.35 13.29,71.38 0.91,64.02 10.83,59.23 6.13,81.03 				"/>
				
					<polyline clip-path="url(#SVGID_6_)" fill="none" stroke="#F36D21" stroke-width="0.5" stroke-linecap="round" stroke-linejoin="round" stroke-miterlimit="10" points="
					10.83,59.23 0.91,52.48 12.04,45.43 				"/>
				
					<polyline clip-path="url(#SVGID_6_)" fill="none" stroke="#F36D21" stroke-width="0.5" stroke-linecap="round" stroke-linejoin="round" stroke-miterlimit="10" points="
					10.79,58.61 3.61,37.53 16.24,34.56 7.1,48.56 				"/>
				
					<polyline clip-path="url(#SVGID_6_)" fill="none" stroke="#F36D21" stroke-width="0.5" stroke-linecap="round" stroke-linejoin="round" stroke-miterlimit="10" points="
					16.24,34.56 7.64,28.72 24.95,23.23 3.61,37.53 				"/>
				
					<polyline clip-path="url(#SVGID_6_)" fill="none" stroke="#F36D21" stroke-width="0.5" stroke-linecap="round" stroke-linejoin="round" stroke-miterlimit="10" points="
					24.95,23.23 14.28,19.4 34.6,16.22 29.03,7.47 				"/>
				
					<polyline clip-path="url(#SVGID_6_)" fill="none" stroke="#F36D21" stroke-width="0.5" stroke-linecap="round" stroke-linejoin="round" stroke-miterlimit="10" points="
					14.97,19.29 29.5,8.21 24.27,23.89 				"/>
				
					<polyline clip-path="url(#SVGID_6_)" fill="none" stroke="#F36D21" stroke-width="0.5" stroke-linecap="round" stroke-linejoin="round" stroke-miterlimit="10" points="
					29.5,7.81 43.96,12.42 49.73,1.31 55.56,10.73 39.75,2.87 43.96,12.42 				"/>
				
					<polyline clip-path="url(#SVGID_6_)" fill="none" stroke="#F36D21" stroke-width="0.5" stroke-linecap="round" stroke-linejoin="round" stroke-miterlimit="10" points="
					49.73,1.31 56.3,4.73 55.56,10.73 				"/>
				
					<line clip-path="url(#SVGID_6_)" fill="none" stroke="#F36D21" stroke-width="0.5" stroke-linecap="round" stroke-linejoin="round" stroke-miterlimit="10" x1="69.43" y1="2.23" x2="55.64" y2="10.05"/>
				
					<path clip-path="url(#SVGID_6_)" fill="none" stroke="#F36D21" stroke-width="0.5" stroke-linecap="round" stroke-linejoin="round" stroke-miterlimit="10" d="
					M39.91,3.22c-0.35,0.59-5.69,13.06-5.69,13.06"/>
				
					<polyline clip-path="url(#SVGID_6_)" fill="none" stroke="#F36D21" stroke-width="0.5" stroke-linecap="round" stroke-linejoin="round" stroke-miterlimit="10" points="
					55.14,10.05 75.48,10.73 80.36,5.8 				"/>
			</g>
		</g>
		<path clip-path="url(#SVGID_4_)" fill="#999999" d="M59.72,70.3h-6c-0.55,0-1-0.45-1-1v-1.64c-5.34-1.72-9-6.69-9-12.36
			c0-7.17,5.83-13,13-13c7.17,0,13,5.83,13,13c0,5.66-3.66,10.64-9,12.36v1.64C60.72,69.85,60.27,70.3,59.72,70.3 M54.72,68.3h4
			v-1.39c0-0.46,0.31-0.85,0.75-0.97c4.86-1.25,8.25-5.63,8.25-10.64c0-6.07-4.94-11-11-11c-6.07,0-11,4.93-11,11
			c0,5.01,3.39,9.39,8.25,10.64c0.44,0.11,0.75,0.51,0.75,0.97V68.3z"/>
		<path clip-path="url(#SVGID_4_)" fill="#999999" d="M57.72,78.3h-2c-0.55,0-1-0.45-1-1s0.45-1,1-1h2c0.55,0,1,0.45,1,1
			S58.27,78.3,57.72,78.3"/>
		<path clip-path="url(#SVGID_4_)" fill="#999999" d="M59.72,74.3h-6c-0.55,0-1-0.45-1-1s0.45-1,1-1h6c0.55,0,1,0.45,1,1
			S60.27,74.3,59.72,74.3"/>
		<path clip-path="url(#SVGID_4_)" fill="#999999" d="M56.72,40.3c-0.55,0-1-0.45-1-1v-4c0-0.55,0.45-1,1-1c0.55,0,1,0.45,1,1v4
			C57.72,39.85,57.27,40.3,56.72,40.3"/>
		<path clip-path="url(#SVGID_4_)" fill="#999999" d="M76.72,56.3h-4c-0.55,0-1-0.45-1-1c0-0.55,0.45-1,1-1h4c0.55,0,1,0.45,1,1
			C77.72,55.85,77.27,56.3,76.72,56.3"/>
		<path clip-path="url(#SVGID_4_)" fill="#999999" d="M40.72,56.3h-4c-0.55,0-1-0.45-1-1c0-0.55,0.45-1,1-1h4c0.55,0,1,0.45,1,1
			C41.72,55.85,41.27,56.3,40.72,56.3"/>
		<path clip-path="url(#SVGID_4_)" fill="#999999" d="M45.4,44.99c-0.26,0-0.51-0.1-0.71-0.29l-4.24-4.24
			c-0.39-0.39-0.39-1.02,0-1.41c0.39-0.39,1.02-0.39,1.41,0l4.24,4.24c0.39,0.39,0.39,1.02,0,1.41
			C45.92,44.89,45.66,44.99,45.4,44.99"/>
		<path clip-path="url(#SVGID_4_)" fill="#999999" d="M68.03,44.99c-0.26,0-0.51-0.1-0.71-0.29c-0.39-0.39-0.39-1.02,0-1.41
			l4.24-4.24c0.39-0.39,1.02-0.39,1.41,0c0.39,0.39,0.39,1.02,0,1.41l-4.24,4.24C68.54,44.89,68.29,44.99,68.03,44.99"/>
	</g>
</g>
</svg>
