<svg id="SvgjsSvg1010" xmlns="http://www.w3.org/2000/svg" version="1.1" xmlns:xlink="http://www.w3.org/1999/xlink" xmlns:svgjs="http://svgjs.com/svgjs" width="31" height="32" viewBox="0 0 31 32"><title>Shape 2</title><desc>Created with Avocode.</desc><defs id="SvgjsDefs1011"><clipPath id="SvgjsClipPath1014"><path id="SvgjsPath1013" d="M759.769 354.899C758.438 355.956 735.075 374.519 734.157 375.249C732.966 376.19500000000005 731.407 376.048 731.438 374.654C731.463 373.537 730.276 348.86 730.33 346.946C730.365 345.68800000000005 731.884 344.502 733.104 344.742C734.465 345.007 758.2700000000001 351.797 759.83 352.151C760.974 352.41 761.081 353.856 759.769 354.899Z " fill="#ffffff"></path></clipPath></defs><path id="SvgjsPath1012" d="M759.769 354.899C758.438 355.956 735.075 374.519 734.157 375.249C732.966 376.19500000000005 731.407 376.048 731.438 374.654C731.463 373.537 730.276 348.86 730.33 346.946C730.365 345.68800000000005 731.884 344.502 733.104 344.742C734.465 345.007 758.2700000000001 351.797 759.83 352.151C760.974 352.41 761.081 353.856 759.769 354.899Z " fill-opacity="0" fill="#ffffff" stroke-dasharray="0" stroke-linejoin="miter" stroke-linecap="butt" stroke-opacity="1" stroke="#e2e2e2" stroke-miterlimit="50" stroke-width="2" clip-path="url(&quot;#SvgjsClipPath1014&quot;)" transform="matrix(1,0,0,1,-730,-344)"></path></svg>