<?xml version="1.0" encoding="utf-8"?>
<!-- Generator: Adobe Illustrator 19.0.0, SVG Export Plug-In . SVG Version: 6.00 Build 0)  -->
<svg version="1.1" id="Layer_1" xmlns="http://www.w3.org/2000/svg" xmlns:xlink="http://www.w3.org/1999/xlink" x="0px" y="0px"
	 viewBox="0 0 306 177" style="enable-background:new 0 0 306 177;" xml:space="preserve">
<style type="text/css">
	.st0{fill:#F36D20;}
	.st1{fill:#B84200;}
</style>
<path id="XMLID_1_" class="st0" d="M15,57.7c0,0,29.5-24.9,86.1-9.8c22.3,6,32.2,7.7,54.9,4.8c34.9-4.5,51.7-22,99,5
	c38.3,21.9-200,44-200,44L15,57.7z"/>
<path id="XMLID_5_" class="st1" d="M0,52c0,0,42.3,21,79.7,4.7C117,40.3,144.3,30.1,183,62.9c18.1,15.4,40.8,3.9,57.3-8.1
	c7.3-5.3,13.4-9.9,22-12.8c8.2-2.8,17.2-3.4,25.6-1c6.8,2,13,5.8,18.1,10.7V177H0V52z"/>
</svg>
